<?xml version="1.0" standalone="no"?>
<!DOCTYPE svg PUBLIC "-//W3C//DTD SVG 1.1//EN"
"http://www.w3.org/Graphics/SVG/1.1/DTD/svg11.dtd">

<svg width="322" height="154" view_box="0 0 322 154"
xmlns="http://www.w3.org/2000/svg"
xmlns:link="http://www.w3.org/1999/xlink">\n\n<desc>Généré par Mocodo 2.3.7 le Fri, 18 Jun 2021 07:35:00</desc>

<rect id="frame" x="0" y="0" width="322" height="154" fill="#f7f7f7" stroke="none" stroke-width="0"/>

<!-- Association belongs to -->
<line x1="273" y1="77" x2="162" y2="77" stroke="#e08214" stroke-width="2"/>
<text x="206" y="94.0" fill="#542788" font-family="Verdana" font-size="12">0,N</text>
<line x1="50" y1="77" x2="162" y2="77" stroke="#e08214" stroke-width="2"/>
<text x="96" y="94.0" fill="#542788" font-family="Verdana" font-size="12">1,1</text>
<g id="association-belongs to">
	<path d="M 187 52 a 14 14 90 0 1 14 14 V 77 h -78 V 66 a 14 14 90 0 1 14 -14" fill="#fdb863" stroke="#fdb863" stroke-width="0"/>
	<path d="M 201 77.0 v 11 a 14 14 90 0 1 -14 14 H 137 a 14 14 90 0 1 -14 -14 V 77.0 H 78" fill="#fee0b6" stroke="#fee0b6" stroke-width="0"/>
	<rect x="123" y="52" width="78" height="50" fill="none" rx="14" stroke="#e08214" stroke-width="2"/>
	<line x1="123" y1="77" x2="201" y2="77" stroke="#e08214" stroke-width="1"/>
	<text x="130" y="69.7" fill="#000000" font-family="Verdana" font-size="12">belongs to</text>
</g>

<!-- Entity CATEGORY -->
<g id="entity-CATEGORY">
	<g id="frame-CATEGORY">
		<rect x="233" y="26" width="80" height="25" fill="#b2abd2" stroke="#b2abd2" stroke-width="0"/>
		<rect x="233" y="51.0" width="80" height="77" fill="#d8daeb" stroke="#d8daeb" stroke-width="0"/>
		<rect x="233" y="26" width="80" height="102" fill="none" stroke="#8073ac" stroke-width="2"/>
		<line x1="233" y1="51" x2="313" y2="51" stroke="#8073ac" stroke-width="1"/>
	</g>
	<text x="239" y="43.7" fill="#000000" font-family="Verdana" font-size="12">CATEGORY</text>
	<text x="238" y="68.7" fill="#000000" font-family="Verdana" font-size="12">name</text>
	<line x1="238" y1="71" x2="273" y2="71" stroke="#000000" stroke-width="1"/>
	<text x="238" y="85.8" fill="#000000" font-family="Verdana" font-size="12">status</text>
	<text x="238" y="102.8" fill="#000000" font-family="Verdana" font-size="12">created_at</text>
	<text x="238" y="119.8" fill="#000000" font-family="Verdana" font-size="12">updated_at</text>
</g>

<!-- Entity TASK -->
<g id="entity-TASK">
	<g id="frame-TASK">
		<rect x="9" y="9" width="82" height="25" fill="#b2abd2" stroke="#b2abd2" stroke-width="0"/>
		<rect x="9" y="34.0" width="82" height="111" fill="#d8daeb" stroke="#d8daeb" stroke-width="0"/>
		<rect x="9" y="9" width="82" height="136" fill="none" stroke="#8073ac" stroke-width="2"/>
		<line x1="9" y1="34" x2="91" y2="34" stroke="#8073ac" stroke-width="1"/>
	</g>
	<text x="33" y="26.7" fill="#000000" font-family="Verdana" font-size="12">TASK</text>
	<text x="14" y="51.7" fill="#000000" font-family="Verdana" font-size="12">title</text>
	<line x1="14" y1="54" x2="38" y2="54" stroke="#000000" stroke-width="1"/>
	<text x="14" y="68.7" fill="#000000" font-family="Verdana" font-size="12">completion</text>
	<text x="14" y="85.8" fill="#000000" font-family="Verdana" font-size="12">category_id</text>
	<text x="14" y="102.8" fill="#000000" font-family="Verdana" font-size="12">status</text>
	<text x="14" y="119.8" fill="#000000" font-family="Verdana" font-size="12">created_at</text>
	<text x="14" y="136.8" fill="#000000" font-family="Verdana" font-size="12">updated_at</text>
</g>
</svg>